<svg width="150" height="150" viewBox="0 0 150 150" fill="none" xmlns="http://www.w3.org/2000/svg">
<circle cx="75" cy="75" r="75" fill="#B5AB99"/>
<path fill-rule="evenodd" clip-rule="evenodd" d="M92.762 106.668C92.1868 106.669 91.6295 106.868 91.185 107.233C90.7404 107.598 90.4362 108.106 90.3241 108.67C90.212 109.234 90.299 109.82 90.5702 110.327C90.8415 110.834 91.2802 111.232 91.8116 111.452C92.343 111.672 92.9343 111.701 93.4847 111.534C94.0351 111.367 94.5105 111.014 94.8301 110.536C95.1496 110.058 95.2935 109.483 95.2371 108.911C95.1807 108.339 94.9276 107.803 94.5209 107.397C94.2901 107.166 94.0159 106.982 93.714 106.857C93.4122 106.732 93.0887 106.668 92.762 106.668ZM72.6252 93.4916C72.417 93.4916 72.2135 93.4299 72.0404 93.3142C71.8673 93.1986 71.7324 93.0342 71.6527 92.8419C71.573 92.6495 71.5522 92.4379 71.5928 92.2337C71.6334 92.0295 71.7337 91.842 71.8809 91.6948C72.0281 91.5476 72.2156 91.4473 72.4198 91.4067C72.624 91.3661 72.8356 91.3869 73.028 91.4666C73.2203 91.5463 73.3847 91.6812 73.5004 91.8543C73.616 92.0274 73.6777 92.2309 73.6777 92.4391C73.6777 92.7182 73.5668 92.9859 73.3694 93.1833C73.172 93.3807 72.9043 93.4916 72.6252 93.4916ZM72.6252 84.7417C72.417 84.7417 72.2135 84.68 72.0404 84.5643C71.8673 84.4487 71.7324 84.2843 71.6527 84.0919C71.573 83.8996 71.5522 83.688 71.5928 83.4838C71.6334 83.2796 71.7337 83.092 71.8809 82.9448C72.0281 82.7976 72.2156 82.6974 72.4198 82.6568C72.624 82.6161 72.8356 82.637 73.028 82.7167C73.2203 82.7963 73.3847 82.9312 73.5004 83.1043C73.616 83.2774 73.6777 83.4809 73.6777 83.6891C73.6777 83.9683 73.5668 84.236 73.3694 84.4334C73.172 84.6308 72.9043 84.7417 72.6252 84.7417ZM72.6411 75.7573C72.4329 75.7573 72.2294 75.6955 72.0562 75.5798C71.8831 75.4641 71.7482 75.2997 71.6686 75.1073C71.5889 74.9149 71.5681 74.7032 71.6088 74.499C71.6495 74.2948 71.7499 74.1072 71.8972 73.9601C72.0445 73.8129 72.2321 73.7127 72.4364 73.6722C72.6406 73.6317 72.8523 73.6527 73.0446 73.7325C73.2369 73.8124 73.4013 73.9474 73.5168 74.1207C73.6323 74.2939 73.6939 74.4975 73.6937 74.7057C73.6934 74.9847 73.5824 75.2522 73.3851 75.4494C73.1877 75.6465 72.9201 75.7573 72.6411 75.7573ZM77.4142 93.4916C77.135 93.4916 76.8673 93.3807 76.6699 93.1833C76.4725 92.9859 76.3616 92.7182 76.3616 92.4391C76.3616 92.1599 76.4725 91.8922 76.6699 91.6948C76.8673 91.4974 77.135 91.3865 77.4142 91.3865C77.6933 91.3865 77.9611 91.4974 78.1585 91.6948C78.3559 91.8922 78.4668 92.1599 78.4668 92.4391C78.4668 92.7182 78.3559 92.9859 78.1585 93.1833C77.9611 93.3807 77.6933 93.4916 77.4142 93.4916ZM77.4142 84.7417C77.2733 84.746 77.133 84.722 77.0015 84.6711C76.8701 84.6202 76.7502 84.5434 76.649 84.4453C76.5478 84.3472 76.4674 84.2297 76.4124 84.0999C76.3575 83.9701 76.3292 83.8306 76.3292 83.6896C76.3292 83.5487 76.3575 83.4091 76.4124 83.2793C76.4674 83.1495 76.5478 83.0321 76.649 82.934C76.7502 82.8358 76.8701 82.759 77.0015 82.7081C77.133 82.6572 77.2733 82.6332 77.4142 82.6375C77.5551 82.6332 77.6954 82.6572 77.8268 82.7081C77.9583 82.759 78.0781 82.8358 78.1793 82.934C78.2805 83.0321 78.361 83.1495 78.4159 83.2793C78.4709 83.4091 78.4992 83.5487 78.4992 83.6896C78.4992 83.8306 78.4709 83.9701 78.4159 84.0999C78.361 84.2297 78.2805 84.3472 78.1793 84.4453C78.0781 84.5434 77.9583 84.6202 77.8268 84.6711C77.6954 84.722 77.5551 84.746 77.4142 84.7417ZM77.4301 75.7573C77.2219 75.7573 77.0184 75.6955 76.8452 75.5798C76.6721 75.4641 76.5372 75.2997 76.4576 75.1073C76.3779 74.9149 76.3572 74.7032 76.3978 74.499C76.4385 74.2948 76.5389 74.1072 76.6862 73.9601C76.8335 73.8129 77.0212 73.7127 77.2254 73.6722C77.4296 73.6317 77.6413 73.6527 77.8336 73.7325C78.026 73.8124 78.1903 73.9474 78.3058 74.1207C78.4214 74.2939 78.4829 74.4975 78.4827 74.7057C78.4827 74.8439 78.4555 74.9807 78.4026 75.1084C78.3497 75.236 78.2721 75.352 78.1744 75.4497C78.0766 75.5473 77.9606 75.6248 77.8329 75.6775C77.7052 75.7303 77.5683 75.7574 77.4301 75.7573ZM76.0802 109.659C77.3187 109.919 78.4169 110.629 79.1625 111.652C79.9081 112.674 80.2483 113.937 80.1175 115.196C79.9866 116.454 79.3939 117.62 78.4539 118.467C77.5139 119.315 76.2932 119.784 75.0276 119.784C73.7621 119.784 72.5414 119.315 71.6014 118.467C70.6614 117.62 70.0687 116.454 69.9378 115.196C69.8069 113.937 70.1472 112.674 70.8928 111.652C71.6384 110.629 72.7366 109.919 73.9751 109.659V97.8247C73.1051 97.7958 71.8869 97.7349 70.493 97.6252V107.221C70.492 108.012 70.1774 108.77 69.6181 109.329C69.0589 109.889 68.3007 110.203 67.5099 110.204H61.7651C61.5071 111.3 60.8555 112.262 59.9342 112.909C59.0129 113.555 57.8862 113.841 56.7682 113.711C55.6502 113.581 54.619 113.045 53.8704 112.205C53.1219 111.364 52.7083 110.278 52.7083 109.152C52.7083 108.027 53.1219 106.94 53.8704 106.1C54.619 105.259 55.6502 104.723 56.7682 104.593C57.8862 104.464 59.0129 104.749 59.9342 105.396C60.8555 106.042 61.5071 107.005 61.7651 108.1H67.5099C67.7428 108.099 67.9659 108.006 68.1306 107.842C68.2952 107.677 68.3881 107.454 68.3889 107.221V97.4236C67.1178 97.2879 65.7828 97.1113 64.4838 96.8829L64.3362 96.8569V99.3133C64.3335 100.104 64.0183 100.861 63.4592 101.42C62.9001 101.979 62.1426 102.294 61.352 102.296H55.9384C55.6843 103.193 55.1144 103.968 54.3338 104.478C53.5532 104.987 52.6145 105.198 51.6911 105.069C50.7677 104.941 49.9219 104.483 49.3097 103.78C48.6976 103.077 48.3603 102.176 48.3603 101.244C48.3603 100.312 48.6976 99.4108 49.3097 98.7077C49.9219 98.0046 50.7677 97.5467 51.6911 97.4184C52.6145 97.2902 53.5532 97.5003 54.3338 98.0099C55.1144 98.5195 55.6843 99.2943 55.9384 100.191H61.352C61.5848 100.191 61.8079 100.098 61.9726 99.9336C62.1373 99.7691 62.2302 99.5461 62.231 99.3133V96.4199C58.5325 95.522 55.5583 94.0444 55.5583 91.6399V91.6249V73.4436H52.8385C51.0268 73.4591 49.23 73.1156 47.5517 72.4329C45.8734 71.7503 44.347 70.7421 43.0604 69.4664C41.7738 68.1908 40.7526 66.673 40.0557 65.0006C39.3588 63.3282 39 61.5344 39 59.7226C39 57.9108 39.3588 56.117 40.0557 54.4446C40.7526 52.7722 41.7738 51.2544 43.0604 49.9787C44.347 48.7031 45.8734 47.6948 47.5517 47.0122C49.23 46.3296 51.0268 45.9861 52.8385 46.0015C52.8286 45.7771 52.8246 45.5635 52.8246 45.362C52.8252 41.9785 53.9426 38.6899 56.0034 36.0064C58.0642 33.3229 60.9532 31.3947 64.2219 30.5211C67.4906 29.6474 70.9563 29.8771 74.0812 31.1746C77.206 32.472 79.8152 34.7646 81.5038 37.6966C81.8982 37.6128 82.2973 37.5443 82.7011 37.4911C86.5692 36.9738 90.4893 37.9478 93.6655 40.2155C96.8417 42.4832 99.036 45.8745 99.8028 49.7011C102.895 49.8798 105.795 51.2589 107.886 53.5446C109.976 55.8303 111.092 58.8419 110.994 61.9378C110.897 65.0337 109.594 67.9692 107.364 70.119C105.134 72.2687 102.153 73.4627 99.0555 73.4466H94.497V73.8387V82.7343V91.6289V91.6439C94.497 94.0484 91.5228 95.525 87.8243 96.4239V99.3173C87.8251 99.5501 87.918 99.7731 88.0827 99.9376C88.2474 100.102 88.4705 100.195 88.7033 100.195H94.078C94.3322 99.2931 94.9043 98.5134 95.6886 98.0002C96.4729 97.487 97.4164 97.275 98.3449 97.4033C99.2734 97.5316 100.124 97.9916 100.74 98.6983C101.356 99.4049 101.695 100.311 101.695 101.248C101.695 102.185 101.356 103.091 100.74 103.797C100.124 104.504 99.2734 104.964 98.3449 105.092C97.4164 105.221 96.4729 105.009 95.6886 104.495C94.9043 103.982 94.3322 103.203 94.078 102.3H88.7033C87.9124 102.299 87.1543 101.985 86.595 101.426C86.0358 100.866 85.7212 100.108 85.7201 99.3173V96.8609L85.5715 96.8869C84.2744 97.1153 82.9375 97.2919 81.6664 97.4276V107.221C81.6677 107.454 81.7608 107.677 81.9253 107.841C82.0899 108.006 82.3127 108.099 82.5454 108.1H88.2902C88.5482 107.005 89.1998 106.042 90.1211 105.396C91.0424 104.749 92.1691 104.464 93.2871 104.593C94.4051 104.723 95.4363 105.259 96.1849 106.1C96.9334 106.94 97.347 108.027 97.347 109.152C97.347 110.278 96.9334 111.364 96.1849 112.205C95.4363 113.045 94.4051 113.581 93.2871 113.711C92.1691 113.841 91.0424 113.555 90.1211 112.909C89.1998 112.262 88.5482 111.3 88.2902 110.204H82.5454C81.7545 110.203 80.9964 109.889 80.4372 109.329C79.8779 108.77 79.5633 108.012 79.5622 107.221V97.6242C78.1654 97.7349 76.9502 97.7958 76.0802 97.8237V109.659ZM77.1608 112.539C76.6673 112.045 76.0179 111.738 75.3232 111.669C74.6285 111.601 73.9315 111.775 73.351 112.163C72.7704 112.55 72.3423 113.127 72.1396 113.795C71.9369 114.463 71.9721 115.181 72.2392 115.826C72.5063 116.471 72.9887 117.003 73.6044 117.332C74.2201 117.662 74.9308 117.767 75.6154 117.631C76.3001 117.494 76.9163 117.125 77.3591 116.585C77.8019 116.046 78.0439 115.369 78.0437 114.671C78.0441 114.275 77.9664 113.883 77.8148 113.517C77.6633 113.151 77.441 112.819 77.1608 112.539ZM99.0725 99.9897C98.7813 99.6982 98.398 99.5166 97.9879 99.476C97.5778 99.4354 97.1663 99.5382 96.8236 99.767C96.4809 99.9958 96.2281 100.336 96.1083 100.731C95.9886 101.125 96.0093 101.549 96.1669 101.929C96.3245 102.31 96.6093 102.624 96.9727 102.819C97.3361 103.013 97.7557 103.075 98.1598 102.995C98.564 102.915 98.9278 102.696 99.1892 102.378C99.4506 102.059 99.5934 101.66 99.5933 101.248C99.5936 101.014 99.5478 100.783 99.4584 100.567C99.3691 100.351 99.2379 100.155 99.0725 99.9897ZM53.4591 100.003C53.171 99.7146 52.792 99.5354 52.3865 99.4955C51.9811 99.4555 51.5743 99.5574 51.2356 99.7838C50.8968 100.01 50.6471 100.347 50.5288 100.737C50.4106 101.127 50.4312 101.546 50.5871 101.922C50.743 102.298 51.0246 102.609 51.3839 102.801C51.7432 102.993 52.158 103.055 52.5576 102.975C52.9572 102.896 53.3168 102.68 53.5753 102.365C53.8337 102.05 53.9749 101.655 53.9749 101.248C53.9752 101.017 53.9298 100.787 53.8413 100.574C53.7528 100.36 53.6229 100.166 53.4591 100.003ZM59.0463 107.397C58.6386 106.988 58.1017 106.733 57.5273 106.676C56.9528 106.619 56.3763 106.763 55.896 107.083C55.4158 107.404 55.0616 107.881 54.8938 108.433C54.726 108.986 54.755 109.579 54.9758 110.112C55.1967 110.646 55.5957 111.086 56.1049 111.358C56.6141 111.63 57.2019 111.717 57.768 111.604C58.3342 111.492 58.8437 111.186 59.2096 110.739C59.5755 110.293 59.7752 109.733 59.7746 109.156C59.775 108.829 59.7109 108.505 59.5859 108.204C59.4609 107.902 59.2775 107.628 59.0463 107.397ZM94.497 71.3384H99.0555C101.562 71.3407 103.974 70.3801 105.793 68.655C107.612 66.93 108.698 64.5722 108.829 62.0689C108.959 59.5655 108.123 57.1077 106.493 55.2032C104.863 53.2988 102.564 52.093 100.07 51.8352C100.088 52.1272 100.096 52.4215 100.096 52.7181C100.096 52.9973 99.9853 53.265 99.7879 53.4624C99.5905 53.6598 99.3227 53.7707 99.0436 53.7707C98.7644 53.7707 98.4967 53.6598 98.2993 53.4624C98.1019 53.265 97.991 52.9973 97.991 52.7181C97.9859 50.8299 97.5786 48.9645 96.7964 47.2459C96.0141 45.5273 94.8748 43.9951 93.4542 42.7512C92.0336 41.5073 90.3643 40.5803 88.5575 40.0318C86.7507 39.4833 84.8478 39.326 82.9754 39.5703C82.8005 39.5936 82.6252 39.6205 82.4496 39.6511C82.77 40.4499 83.0223 41.2742 83.2039 42.1155C83.2579 42.3865 83.203 42.668 83.0509 42.8988C82.8989 43.1296 82.662 43.2912 82.3916 43.3486C82.1212 43.4059 81.8391 43.3544 81.6064 43.2052C81.3738 43.056 81.2093 42.8211 81.1486 42.5515C80.4511 39.3571 78.5983 36.533 75.9458 34.6213C73.2934 32.7097 70.0282 31.8451 66.7773 32.1937C63.5263 32.5423 60.5187 34.0795 58.3319 36.5101C56.145 38.9407 54.9331 42.0934 54.9287 45.363C54.9287 45.657 54.9361 45.9231 54.9507 46.1612L55.1652 46.1961C55.9312 46.3273 56.6846 46.5239 57.417 46.7838C57.5471 46.8296 57.6668 46.9006 57.7694 46.9928C57.872 47.0849 57.9554 47.1963 58.015 47.3207C58.0745 47.4451 58.1089 47.58 58.1163 47.7177C58.1237 47.8553 58.1039 47.9931 58.0581 48.1232C58.0122 48.2532 57.9412 48.373 57.8491 48.4755C57.7569 48.5781 57.6455 48.6616 57.5211 48.7211C57.3967 48.7806 57.2619 48.8151 57.1242 48.8225C56.9865 48.8299 56.8487 48.8101 56.7186 48.7642C56.0985 48.5438 55.4606 48.3769 54.812 48.2654C54.1601 48.1545 53.4999 48.099 52.8385 48.0997C49.7577 48.0997 46.803 49.3236 44.6245 51.5021C42.446 53.6806 41.2222 56.6352 41.2222 59.7161C41.2222 62.7969 42.446 65.7516 44.6245 67.9301C46.803 70.1086 49.7577 71.3325 52.8385 71.3325H55.5583V64.9251C55.5703 62.9736 57.9229 61.3394 61.7212 60.2728C66.0699 59.1767 70.5433 58.6538 75.0276 58.7174C79.512 58.6538 83.9854 59.1767 88.3341 60.2728C92.1324 61.3394 94.485 62.9746 94.497 64.9251V71.3384ZM57.6675 73.8387C57.6675 74.7366 59.4384 75.6805 62.2929 76.4816C66.4557 77.5243 70.7367 78.0197 75.0276 77.9553C79.3203 78.0201 83.603 77.5248 87.7674 76.4816C90.6229 75.6835 92.3908 74.7347 92.3928 73.8377V67.9173C91.1281 68.6741 89.7613 69.2453 88.3341 69.6134C83.9853 70.7087 79.5118 71.2303 75.0276 71.1648C70.5432 71.2283 66.0697 70.7048 61.7212 69.6074C60.2941 69.2391 58.9273 68.6679 57.6625 67.9113V73.8327L57.6675 73.8387ZM92.3978 76.8129C91.1328 77.5691 89.766 78.1403 88.3391 78.509C83.9885 79.6039 79.5134 80.1251 75.0276 80.0594C70.5433 80.123 66.0699 79.6001 61.7212 78.504C60.2942 78.1353 58.9275 77.5641 57.6625 76.8079V82.7293C57.6625 83.6273 59.4334 84.5701 62.2879 85.3713C66.452 86.4165 70.7348 86.9136 75.0276 86.8499C79.3203 86.9152 83.6031 86.4199 87.7674 85.3762C90.6229 84.5781 92.3908 83.6303 92.3928 82.7333V76.8129H92.3978ZM57.6675 64.9381V64.9441C57.6675 65.842 59.4384 66.7849 62.2929 67.586C66.4556 68.6292 70.7367 69.1246 75.0276 69.0597C79.3203 69.125 83.6031 68.6296 87.7674 67.586C90.6229 66.7879 92.3908 65.8401 92.3928 64.9431C92.3928 64.0452 90.6229 63.1013 87.7674 62.2992C83.6029 61.2568 79.3202 60.7621 75.0276 60.8275C70.7351 60.7624 66.4524 61.2575 62.2879 62.3002C59.4334 63.0983 57.6665 64.0462 57.6625 64.9431L57.6675 64.9381ZM57.6675 85.7075V91.6259V91.6409C57.6675 93.1374 61.0976 94.1561 64.851 94.8156C68.1773 95.3669 71.5389 95.6786 74.9099 95.7485C75.2022 95.7485 74.6036 95.7485 75.0306 95.7485C75.4577 95.7485 74.856 95.7545 75.1534 95.7485C78.5243 95.6786 81.886 95.3669 85.2123 94.8156C88.9657 94.1561 92.3958 93.1384 92.3958 91.6409V91.6259V85.7075C91.1308 86.4626 89.764 87.0321 88.3371 87.3986C83.9875 88.4959 79.513 89.0191 75.0276 88.955C70.5433 89.0189 66.0698 88.4956 61.7212 87.3986C60.2961 87.0314 58.931 86.4619 57.6675 85.7075Z" fill="#E25F40"/>
</svg>
