<svg width="100" height="125" viewBox="0 0 100 125" fill="none" xmlns="http://www.w3.org/2000/svg">
<path d="M55.3 58.4C53.5 56.6 50.7 56.6 48.9 58.4C47.6 59.7 47.3 61.7 47.9 63.3L25.9 85.4L14.7 74.2L36.8 52.1C38.3 52.7 40.1 52.3 41.3 51.1L41.7 50.7C43.3 49.1 43.3 46.4 41.7 44.7C38.9 41.9 34.2 41.9 31.4 44.7L7.1 69C4.3 71.8 4.3 76.5 7.1 79.3L20.7 93C24.2 96.5 28.8 95.1 31 93L55.3 68.7C56.7 67.3 57.4 65.5 57.4 63.6C57.4 61.6 56.6 59.8 55.3 58.4ZM52.6 66L28.4 90.3C27.2 91.5 25 91.9 23.4 90.3L9.7 76.7C8.3 75.3 8.3 73.1 9.7 71.7L34 47.4C34.7 46.7 35.6 46.4 36.5 46.4C37.4 46.4 38.3 46.7 39 47.4C39.2 47.6 39.2 47.9 39 48.1L38.6 48.5C38.5 48.6 38.4 48.6 38.3 48.6C38.2 48.6 38.1 48.6 38 48.5C37.2 47.7 35.9 47.7 35.2 48.5L10.8 72.8C10 73.6 10 74.9 10.8 75.6L24.4 89.2C25.4 90.2 26.6 89.8 27.2 89.2L51.5 65C52.3 64.2 52.3 62.9 51.5 62.2C51.2 61.9 51.2 61.4 51.5 61.1C51.8 60.8 52.3 60.8 52.6 61.1C53.3 61.8 53.6 62.7 53.6 63.6C53.7 64.5 53.3 65.4 52.6 66Z" fill="#E25F40"/>
<path d="M35.2998 60C35.2998 61.2 35.7998 62.3001 36.5998 63.2001C37.4998 64.1001 38.5998 64.5 39.7998 64.5C40.9998 64.5 42.0998 64.1001 42.9998 63.2001L63.1998 43C64.9998 41.2 64.9998 38.4 63.1998 36.6C62.2998 35.7 61.1998 35.3 59.9998 35.3C58.7998 35.3 57.6998 35.8 56.7998 36.6L36.5998 56.8C35.7998 57.7 35.2998 58.8 35.2998 60ZM39.2998 59.5L59.4998 39.3C59.6998 39.1 59.8998 39.1 59.9998 39.1C60.0998 39.1 60.2998 39.1 60.4998 39.3C60.7998 39.6 60.7998 40.1001 60.4998 40.4001L40.3998 60.6C40.0998 60.9 39.5998 60.9 39.2998 60.6C39.0998 60.4 39.0998 60.2 39.0998 60.1C39.0998 59.9 39.0998 59.7 39.2998 59.5Z" fill="#E25F40"/>
<path d="M93.0002 20.7L79.3002 7.1C76.5002 4.3 71.9002 4.3 69.0002 7.1L44.8002 31.4C42.0002 34.2 42.0002 38.9 44.8002 41.7C46.4002 43.3 49.1002 43.3 50.8002 41.7L51.2002 41.3C52.0002 40.5 52.4002 39.4 52.4002 38.3C52.4002 37.8 52.3002 37.3 52.1002 36.8L74.2002 14.7L85.4002 25.9L63.3002 47.9C61.7002 47.2 59.7002 47.5 58.4002 48.9C56.6002 50.7 56.6002 53.5 58.4002 55.3C59.8002 56.7 61.6002 57.4 63.5002 57.4C65.4002 57.4 67.3002 56.6 68.6002 55.3L93.0002 31C96.4002 27.5 95.1002 22.9 93.0002 20.7ZM90.3002 28.4L66.0002 52.6C65.3002 53.3 64.4002 53.6 63.5002 53.6C62.6002 53.6 61.7002 53.2 61.0002 52.6C60.7002 52.3 60.7002 51.8 61.0002 51.5C61.3002 51.2 61.8002 51.2 62.1002 51.5C62.5002 51.9 63.0002 52.1 63.5002 52.1C64.0002 52.1 64.5002 51.9 64.9002 51.5L89.2002 27.2C89.9002 26.5 90.1002 25.2 89.2002 24.4L75.6002 10.8C74.8002 10 73.5002 10 72.8002 10.8L48.5002 35.1C47.7002 35.9 47.7002 37.2 48.5002 37.9C48.6002 38 48.6002 38.1 48.6002 38.2C48.6002 38.3 48.6002 38.4 48.5002 38.5L48.1002 39C47.9002 39.2 47.6002 39.2 47.4002 39C46.0002 37.6 46.0002 35.4 47.4002 34L71.7002 9.7C73.1002 8.3 75.3002 8.3 76.7002 9.7L90.3002 23.3C91.5002 24.5 91.9002 26.8 90.3002 28.4Z" fill="#E25F40"/>
</svg>
