<svg width="150" height="150" viewBox="0 0 150 150" fill="none" xmlns="http://www.w3.org/2000/svg">
<circle cx="75" cy="75" r="75" fill="#B5AB99"/>
<path d="M111 60.6V46.2C111 41.7806 94.8842 39 75 39C55.1158 39 39 41.7806 39 46.2V60.6C39 61.973 40.5588 63.1884 43.3034 64.2108C40.566 65.2274 39 66.4334 39 67.8V82.2C39 83.5687 40.5502 84.7812 43.2804 85.8022C40.5523 86.8217 39 88.032 39 89.4V103.8C39 108.216 55.1158 111 75 111C94.8842 111 111 108.216 111 103.8V89.4C111 88.032 109.451 86.821 106.722 85.8014C109.451 84.7805 111 83.568 111 82.2V67.8C111 66.432 109.446 65.2224 106.717 64.2029C109.449 63.1819 111 61.9694 111 60.6ZM75 93C57.5098 93 47.6414 90.9293 43.9183 89.4C45.2734 88.8427 47.4967 88.217 50.5754 87.6446C56.9928 88.7736 65.5716 89.4 75 89.4C84.4262 89.4 93.0043 88.7743 99.421 87.6446C102.496 88.2185 104.724 88.842 106.082 89.4C102.359 90.9293 92.4902 93 75 93ZM75 71.4C57.5098 71.4 47.6414 69.3293 43.9183 67.8C45.2748 67.242 47.5039 66.6178 50.5805 66.0454C56.9978 67.1743 65.5745 67.8 75 67.8C84.4306 67.8 93.0115 67.1736 99.4289 66.0439C102.505 66.617 104.727 67.242 106.082 67.8C102.359 69.3293 92.4902 71.4 75 71.4ZM75 49.8C57.5098 49.8 47.6414 47.7293 43.9183 46.2C47.6414 44.6693 57.5098 42.6 75 42.6C92.4902 42.6 102.359 44.6693 106.082 46.2C102.359 47.7293 92.4902 49.8 75 49.8Z" fill="#E25F40"/>
</svg>
