<svg width="100" height="125" viewBox="0 0 100 125" fill="none" xmlns="http://www.w3.org/2000/svg">
<path d="M49.1869 73.507C50.0242 73.507 50.7029 72.8282 50.7029 71.991C50.7029 71.1537 50.0242 70.475 49.1869 70.475C48.3496 70.475 47.6709 71.1537 47.6709 71.991C47.6709 72.8282 48.3496 73.507 49.1869 73.507Z" fill="#E25F40"/>
<path d="M50.1976 27.968C42.9996 27.968 37.1426 33.824 37.1426 41.023H39.5856C39.5856 35.171 44.3456 30.411 50.1966 30.411C56.0476 30.411 60.8096 35.171 60.8096 41.022C60.8096 44.946 58.6666 48.375 55.4906 50.209C55.2046 50.344 54.9236 50.488 54.6486 50.643C54.1636 50.868 53.1396 51.629 53.1396 51.629C50.0366 53.979 48.0196 57.676 47.9626 61.846H47.9516V65.554H50.3886V62.023H50.3956C50.3956 58.159 52.4776 54.781 55.5726 52.924V52.895C60.0936 50.843 63.2536 46.303 63.2536 41.023C63.2526 33.824 57.3956 27.968 50.1976 27.968Z" fill="#E25F40"/>
<path d="M51.2503 92.591C28.5213 92.591 10.0283 74.0989 10.0283 51.3699C10.0283 28.6399 28.5203 10.1479 51.2503 10.1479C73.9803 10.1479 92.4723 28.6399 92.4723 51.3699C92.4723 74.0999 73.9793 92.591 51.2503 92.591ZM51.2503 12.5909C29.8673 12.5909 12.4723 29.9869 12.4723 51.3699C12.4723 72.7529 29.8673 90.1489 51.2503 90.1489C72.6333 90.1489 90.0283 72.7529 90.0283 51.3699C90.0283 29.9869 72.6333 12.5909 51.2503 12.5909Z" fill="#E25F40"/>
</svg>
