<svg width="100" height="125" viewBox="0 0 100 125" fill="none" xmlns="http://www.w3.org/2000/svg">
<path d="M50 6.0166C35.7304 6.0166 24 17.1441 24 33.0166C24 39.2123 27.4348 47.2931 29.5 51.8291L48.1875 92.8291C48.3485 93.174 48.6045 93.4658 48.9256 93.6703C49.2466 93.8747 49.6194 93.9834 50 93.9834C50.3806 93.9834 50.7534 93.8747 51.0744 93.6703C51.3955 93.4658 51.6515 93.174 51.8125 92.8291L70.5 51.8291C72.5651 47.2931 76 39.2123 76 33.0166C76 17.1441 64.2696 6.0166 50 6.0166ZM50 20.0166C56.6274 20.0166 62 25.3892 62 32.0166C62 38.6439 56.6274 44.0166 50 44.0166C43.3726 44.0166 38 38.6439 38 32.0166C38 25.3892 43.3726 20.0166 50 20.0166Z" fill="#E25F40"/>
</svg>
