<svg width="150" height="150" viewBox="0 0 150 150" fill="none" xmlns="http://www.w3.org/2000/svg">
<circle cx="75" cy="75" r="75" fill="#B5AB99"/>
<path d="M63.3436 53.6397L71.242 61.5381C71.5081 61.8042 71.6079 62.2199 71.4748 62.6023C71.0259 63.7663 71.1755 65.0965 71.8739 66.1109C72.2896 66.7261 72.8882 67.2083 73.57 67.491C73.9691 67.624 74.2517 67.9898 74.2517 68.4388V91.103C74.2517 91.5021 74.0189 91.8679 73.6199 92.0342C71.0758 93.0319 70.394 96.3076 72.3229 98.2531C74.7007 100.631 78.7912 98.9349 78.7912 95.576C78.7912 94.7778 78.5418 94.0462 78.1427 93.4476C77.727 92.8323 77.1284 92.3501 76.4467 92.0674C76.0476 91.9344 75.7649 91.5686 75.7649 91.1196V68.4388C75.7649 67.5575 76.8457 67.1085 77.461 67.7238L85.1931 75.4559C85.4757 75.7386 85.5755 76.1709 85.3926 76.5534C84.3118 79.0309 86.1076 81.8577 88.8679 81.8577C92.2268 81.8577 93.9229 77.7672 91.545 75.3894C90.6637 74.5081 89.3501 74.0924 88.0864 74.3584C87.8536 74.4083 87.6208 74.4748 87.4046 74.5746C87.0222 74.7741 86.5566 74.7076 86.2406 74.3917L78.6083 66.7594C78.3256 66.46 78.2259 66.0111 78.4254 65.612C79.8055 62.7686 77.2781 59.5427 74.152 60.2577C73.8859 60.3243 73.6365 60.4074 73.4037 60.5238C73.0212 60.74 72.539 60.6901 72.2065 60.3575L64.4079 52.5589L63.3436 53.6397ZM65.8212 51.1788L73.1543 58.5118C77.6771 56.982 82.0171 61.3219 80.4873 65.8448L87.2217 72.5626C90.9298 71.4485 94.6711 74.2254 94.6711 78.0998C94.6711 81.2924 92.0771 83.8864 88.8845 83.8864C84.9935 83.8864 82.2333 80.145 83.3473 76.437L77.7437 70.8499V90.4545C81.1358 92.2836 81.8508 96.8896 79.0905 99.6333C76.8291 101.895 73.1709 101.895 70.9095 99.6333C68.1658 96.8896 68.8642 92.2836 72.2564 90.4545V69.0707C69.9118 67.8069 68.7312 65.1132 69.4129 62.5192L61.9469 55.0531L39 78L75 114L111 78L75 42L65.8212 51.1788Z" fill="#E25F40"/>
</svg>
