<svg width="150" height="150" viewBox="0 0 150 150" fill="none" xmlns="http://www.w3.org/2000/svg">
<circle cx="75" cy="75" r="75" fill="#B5AB99"/>
<path d="M111 65.2735C110.982 60.4093 109.304 55.6971 106.244 51.916C107.282 47.593 106.958 43.0546 105.316 38.9231C105.156 38.5305 104.911 38.1783 104.598 37.8917C104.286 37.6051 103.914 37.3914 103.509 37.2659C102.349 36.8681 97.9574 36.1224 89.0082 41.9228C85.1593 40.907 81.1886 40.4274 77.2086 40.4975C73.223 40.4265 69.2467 40.9061 65.3923 41.9228C56.2111 35.9898 51.4382 36.951 50.477 37.2327C50.0699 37.3639 49.6968 37.5834 49.3845 37.8757C49.0722 38.1679 48.8284 38.5256 48.6706 38.9231C47.0239 43.0411 46.6883 47.567 47.7094 51.8829C44.5494 55.645 42.8649 60.4277 42.9697 65.3398C42.9697 83.669 53.4601 89.2043 63.0722 91.1598C62.5788 92.3665 62.2391 93.6304 62.0612 94.9218C62.0439 95.0594 62.0439 95.1985 62.0612 95.3361V100.407C53.3109 101.136 51.4382 96.0156 51.2559 95.4355C51.2135 95.3003 51.1637 95.1676 51.1068 95.0378C49.4167 91.5895 46.4416 88.9417 42.8205 87.663C42.0909 87.4191 41.2942 87.475 40.6058 87.8184C39.9174 88.1618 39.3936 88.7647 39.1497 89.4943C38.9057 90.2239 38.9616 91.0205 39.3051 91.709C39.6485 92.3974 40.2513 92.9212 40.981 93.1651C42.9876 93.89 44.661 95.3219 45.6876 97.1922C46.8476 100.954 51.5874 106.904 62.0281 106.241V111.014C62.0281 111.783 62.3337 112.521 62.8775 113.064C63.4214 113.608 64.1591 113.914 64.9283 113.914C65.6975 113.914 66.4352 113.608 66.979 113.064C67.5229 112.521 67.8285 111.783 67.8285 111.014V95.5515C68.0485 93.863 68.7834 92.2833 69.9332 91.0272C70.336 90.6502 70.6222 90.1656 70.7578 89.6308C70.8934 89.096 70.8727 88.5335 70.6982 88.0101C70.5238 87.4867 70.2028 87.0244 69.7735 86.6779C69.3441 86.3315 68.8244 86.1154 68.2759 86.0555C58.1667 84.8788 48.8198 81.5477 48.8198 65.2238C48.7526 63.2533 49.0949 61.2904 49.8252 59.459C50.5554 57.6277 51.6577 55.9677 53.0623 54.5842C53.4401 54.1776 53.7011 53.6767 53.8177 53.1341C53.9344 52.5916 53.9025 52.0276 53.7252 51.5017C52.7489 48.6647 52.6852 45.5933 53.5429 42.7182C57.1015 43.5217 60.4432 45.0879 63.3373 47.3088C63.7092 47.555 64.1318 47.7141 64.5737 47.7743C65.0155 47.8346 65.4653 47.7944 65.8895 47.6569C69.5718 46.5361 73.4105 46.0157 77.2583 46.1156C81.1006 46.0154 84.9339 46.5359 88.6105 47.6569C89.0345 47.7956 89.4845 47.8364 89.9266 47.7761C90.3686 47.7158 90.7913 47.5561 91.1626 47.3088C93.9502 45.173 97.1408 43.6228 100.543 42.7514C101.388 45.6582 101.312 48.7553 100.327 51.6177C100.165 52.0954 100.132 52.6074 100.231 53.1021C100.33 53.5967 100.557 54.0565 100.891 54.435C103.634 57.3644 105.188 61.2107 105.249 65.2238C105.249 81.5146 95.4218 84.8954 85.7931 86.0555C85.2167 86.1196 84.6729 86.3561 84.233 86.734C83.793 87.1119 83.4772 87.6138 83.3268 88.174C83.1765 88.7342 83.1986 89.3267 83.3902 89.8742C83.5819 90.4216 83.9341 90.8986 84.401 91.2427C85.4285 92.0216 86.6218 94.2092 86.6218 97.8717V110.997C86.6218 111.766 86.9273 112.504 87.4712 113.048C88.0151 113.592 88.7528 113.897 89.522 113.897C90.2911 113.897 91.0288 113.592 91.5727 113.048C92.1166 112.504 92.4222 111.766 92.4222 110.997V97.8717C92.4525 95.5638 92.0302 93.2722 91.1792 91.1267C98.9683 89.4694 111 84.3485 111 65.2735Z" fill="#E25F40"/>
</svg>
