<svg width="150" height="150" viewBox="0 0 150 150" fill="none" xmlns="http://www.w3.org/2000/svg">
<circle cx="75" cy="75" r="75" fill="#B5AB99"/>
<path fill-rule="evenodd" clip-rule="evenodd" d="M94.2 86.4C100.156 86.4 105 91.2456 105 97.2C105 103.154 100.156 108 94.2 108C88.2444 108 83.4 103.154 83.4 97.2C83.4 96.5376 83.9364 96 84.6 96C85.2636 96 85.8 96.5376 85.8 97.2C85.8 101.832 89.5692 105.6 94.2 105.6C98.8308 105.6 102.6 101.832 102.6 97.2C102.6 92.568 98.8308 88.8 94.2 88.8C88.2444 88.8 83.4 83.9544 83.4 78C83.4 72.0456 88.2444 67.2 94.2 67.2C100.156 67.2 105 72.0456 105 78C105 78.6624 104.464 79.2 103.8 79.2C103.136 79.2 102.6 78.6624 102.6 78C102.6 73.368 98.8308 69.6 94.2 69.6C89.5692 69.6 85.8 73.368 85.8 78C85.8 82.632 89.5692 86.4 94.2 86.4ZM79.8 97.2C79.8 103.154 74.9556 108 69 108C63.0444 108 58.2 103.154 58.2 97.2C58.2 96.5376 58.7364 96 59.4 96C60.0636 96 60.6 96.5376 60.6 97.2C60.6 101.832 64.3692 105.6 69 105.6C73.6308 105.6 77.4 101.832 77.4 97.2V68.4C77.4 67.7376 77.9364 67.2 78.6 67.2C79.2636 67.2 79.8 67.7376 79.8 68.4V97.2ZM109.8 42H40.2C39.5364 42 39 42.5376 39 43.2V112.8C39 113.462 39.5364 114 40.2 114H109.8C110.464 114 111 113.462 111 112.8V43.2C111 42.5376 110.464 42 109.8 42Z" fill="#E25F40"/>
</svg>
