<svg width="150" height="150" viewBox="0 0 150 150" fill="none" xmlns="http://www.w3.org/2000/svg">
<circle cx="75" cy="75" r="75" fill="#B5AB99"/>
<path d="M108.007 59.9988H89.9941V41.9944C79.9988 37.8508 69.2582 38.1559 59.9936 41.9944V59.9988H41.9937C37.851 69.9951 38.1561 80.7338 41.9937 90.0011H59.9936V108.007C69.9899 112.15 80.7305 111.845 89.9941 108.007V90.0011H108.007C112.148 80.0021 111.844 69.2625 108.007 59.9988ZM59.9936 81.0011V84.0008H46.248C44.5713 78.0941 44.5713 71.9004 46.248 65.9991H74.9939V59.9988H65.9939V46.2496C68.9234 45.4198 71.9465 44.9995 75.0119 44.9995C78.0638 44.9995 81.0706 45.4189 83.9938 46.2478V68.9997C83.9938 70.6566 82.6492 71.9994 80.9941 71.9994H68.9945C64.0256 72.0003 59.9936 76.0295 59.9936 81.0011ZM103.751 84.0008H74.9948V90.0011H83.9947V103.752C81.0652 104.581 78.0449 105 74.9777 105C71.9276 105 68.9189 104.581 65.9957 103.752V81.0011C65.9957 79.3415 67.3394 78.0005 68.9954 78.0005H80.9941C85.963 78.0005 89.9941 73.9721 89.9941 69.0006V65.9991H103.751C105.428 71.904 105.428 78.0968 103.751 84.0008Z" fill="#E25F40"/>
<path d="M73.4938 55.4999C75.1505 55.4999 76.4935 54.1569 76.4935 52.5002C76.4935 50.8435 75.1505 49.5005 73.4938 49.5005C71.8371 49.5005 70.4941 50.8435 70.4941 52.5002C70.4941 54.1569 71.8371 55.4999 73.4938 55.4999Z" fill="#E25F40"/>
<path d="M76.4933 100.499C78.15 100.499 79.493 99.1564 79.493 97.4997C79.493 95.843 78.15 94.5 76.4933 94.5C74.8367 94.5 73.4937 95.843 73.4937 97.4997C73.4937 99.1564 74.8367 100.499 76.4933 100.499Z" fill="#E25F40"/>
</svg>
