<svg width="150" height="150" viewBox="0 0 150 150" fill="none" xmlns="http://www.w3.org/2000/svg">
<circle cx="75" cy="75" r="75" fill="#B5AB99"/>
<path d="M57.1923 54.7144C57.1923 55.4902 56.9789 56.2173 56.6075 56.8386C55.8838 58.0534 54.5562 58.8674 53.0377 58.8674C50.8961 58.8674 49.1329 57.2447 48.9091 55.1622C48.8934 55.0164 48.8848 54.8654 48.8848 54.7144C48.8848 53.8762 49.1329 53.097 49.5616 52.4445C50.3026 51.3095 51.5834 50.5615 53.0377 50.5615C55.1202 50.5615 56.847 52.0939 57.1455 54.0932C57.1767 54.2962 57.1923 54.5027 57.1923 54.7144Z" fill="#E25F40"/>
<path d="M86.3999 103.522C86.3999 105.815 84.5394 107.675 82.2453 107.675C82.176 107.675 82.1064 107.673 82.0389 107.67C81.0548 107.621 80.1612 107.231 79.4739 106.613C78.6251 105.855 78.0925 104.749 78.0925 103.522C78.0925 101.433 79.6353 99.7041 81.6433 99.4143C81.8394 99.3848 82.0407 99.3691 82.2455 99.3691C83.0212 99.3691 83.7449 99.5809 84.3662 99.9521C85.5843 100.674 86.3999 102.004 86.3999 103.522Z" fill="#E25F40"/>
<path d="M107.991 66.0279C107.991 68.3222 106.132 70.1808 103.838 70.1808C103.338 70.1808 102.861 70.0923 102.416 69.9309C101.512 69.6012 100.754 68.966 100.268 68.1504C99.8981 67.5291 99.6848 66.8037 99.6848 66.0279C99.6848 63.7337 101.545 61.875 103.838 61.875C104.384 61.875 104.907 61.9809 105.384 62.1735C106.28 62.531 107.021 63.1922 107.479 64.0304C107.805 64.6239 107.991 65.3042 107.991 66.0279Z" fill="#E25F40"/>
<path d="M86.7696 71.6595C86.7419 70.5141 86.6985 69.3774 86.6412 68.2546C86.4833 65.0978 86.216 62.0382 85.8481 59.1348C85.7268 58.1699 85.593 57.2241 85.449 56.2956C84.9491 53.0729 84.3174 50.0775 83.5644 47.398C81.2839 39.2865 78.1497 35 74.5 35C70.8504 35 67.7162 39.2865 65.4358 47.398C64.6826 50.0775 64.0509 53.0729 63.5511 56.2956C63.4071 57.2241 63.2735 58.1699 63.152 59.1348C62.7841 62.0382 62.5168 65.0978 62.3589 68.2546C62.3016 69.3774 62.2582 70.5124 62.2305 71.6578C62.1992 72.85 62.1836 74.051 62.1836 75.2623C62.1836 76.4719 62.1992 77.6746 62.2305 78.8651C62.2582 80.0107 62.3016 81.1472 62.3589 82.27C62.5168 85.4268 62.7841 88.4864 63.152 91.3898C63.2735 92.3549 63.4071 93.3007 63.5511 94.229C64.0509 97.4517 64.6826 100.447 65.4358 103.127C67.7162 111.236 70.8504 115.525 74.5 115.525C76.8516 115.525 78.9896 113.744 80.824 110.306C79.8902 110.11 79.0261 109.726 78.2712 109.196C76.8811 111.731 75.5257 112.748 74.5 112.748C72.8201 112.748 70.2586 110.023 68.1084 102.375C67.3344 99.621 66.6923 96.5161 66.1959 93.1598C66.0554 92.2244 65.9287 91.2683 65.8124 90.2945C65.5747 88.2918 65.3838 86.2162 65.2449 84.0851C65.1703 82.9746 65.1113 81.8481 65.0679 80.708C64.9967 78.9204 64.9603 77.1017 64.9603 75.2621C64.9603 73.4226 64.9967 71.6021 65.0679 69.8146C65.1113 68.6761 65.1703 67.5498 65.2449 66.4391C65.3838 64.308 65.5747 62.2324 65.8124 60.2297C65.9287 59.2561 66.0554 58.2999 66.1959 57.3645C66.6923 54.0081 67.3344 50.9034 68.1084 48.1493C70.2586 40.5014 72.8201 37.7767 74.5 37.7767C76.1799 37.7767 78.7415 40.5014 80.8917 48.1495C81.6657 50.9036 82.3078 54.0083 82.8041 57.3647C82.9449 58.3001 83.0714 59.2563 83.1877 60.2299C83.4254 62.2326 83.6165 64.3082 83.7552 66.4393C83.8298 67.55 83.8888 68.6763 83.9322 69.8165C84.0033 71.604 84.0398 73.4227 84.0398 75.2623C84.0398 77.1019 84.0033 78.9206 83.9322 80.7081C83.8888 81.8483 83.8298 82.9746 83.7552 84.0853C83.6163 86.2164 83.4254 88.292 83.1877 90.2947C83.0714 91.2683 82.9449 92.2245 82.8041 93.1599C82.6306 94.3366 82.4381 95.482 82.2297 96.5926H82.2453C83.205 96.5926 84.1196 96.7888 84.9509 97.141C85.1296 96.1935 85.2962 95.2215 85.449 94.229C85.593 93.3005 85.7268 92.3547 85.8481 91.3898C86.216 88.4866 86.4833 85.427 86.6412 82.27C86.6985 81.1472 86.7419 80.0105 86.7696 78.8651C86.8009 77.6747 86.8165 76.4719 86.8165 75.2623C86.8165 74.0527 86.8009 72.85 86.7696 71.6595Z" fill="#E25F40"/>
<path d="M109.369 55.1313C108.265 53.2189 105.918 52.2505 102.397 52.2505C98.0656 52.2505 92.1286 53.7031 85.4489 56.2958C84.5795 56.6325 83.6979 56.99 82.8041 57.3648C80.1161 58.4946 77.3305 59.7945 74.5 61.2418C73.4969 61.7555 72.4904 62.2883 71.4786 62.8384C70.4356 63.4059 69.3891 63.9925 68.3409 64.5964C67.2927 65.2021 66.2601 65.8147 65.2449 66.4395C64.2661 67.0365 63.3029 67.6421 62.3588 68.2548C59.7001 69.9711 57.182 71.7326 54.8478 73.5062C54.0773 74.0911 53.3276 74.6759 52.6004 75.2625C50.058 77.3068 47.7828 79.3512 45.8374 81.3452C39.9525 87.3741 37.8075 92.2334 39.6315 95.3936C40.7352 97.3043 43.0815 98.2745 46.6027 98.2745C50.9344 98.2745 56.8714 96.8221 63.5511 94.2291C64.4205 93.8925 65.3021 93.535 66.1959 93.1601C68.8841 92.0303 71.6695 90.7305 74.5 89.2831C75.5031 88.7694 76.5096 88.2367 77.5214 87.6865C78.5644 87.119 79.6109 86.5326 80.6591 85.9285C81.7073 85.3228 82.7399 84.7102 83.7551 84.0855C84.7339 83.4887 85.6969 82.8828 86.6412 82.2702C89.2999 80.5538 91.818 78.7924 94.1522 77.0187C94.9225 76.4339 95.6724 75.8491 96.3996 75.2625C97.7688 74.1605 99.0617 73.0585 100.266 71.9651C99.4624 71.4792 98.7631 70.8354 98.2164 70.0752C96.9546 71.2137 95.5957 72.3591 94.152 73.5062C93.4144 74.0928 92.6524 74.6776 91.8714 75.2625C90.2542 76.4721 88.5482 77.6782 86.7694 78.8653C85.8427 79.4848 84.8969 80.1009 83.9318 80.7083C82.4185 81.6645 80.862 82.6051 79.2706 83.5249C77.6792 84.443 76.0858 85.3194 74.4998 86.1506C73.4881 86.6817 72.4798 87.1937 71.4784 87.6865C69.559 88.6306 67.6639 89.5018 65.8122 90.2949C64.915 90.6784 64.0264 91.0446 63.1518 91.39C56.5536 94.002 50.6913 95.4978 46.6026 95.4978C44.2129 95.4978 42.592 94.9667 42.0366 94.0053C41.1967 92.551 42.2761 88.9707 47.8243 83.2837C49.8235 81.2359 52.1907 79.1273 54.8477 77.0187C55.5852 76.4322 56.3471 75.8473 57.128 75.2625C58.7455 74.0511 60.4514 72.8467 62.2302 71.658C63.157 71.0384 64.1028 70.4223 65.0677 69.8149C66.581 68.8587 68.1377 67.9198 69.7291 67C71.3205 66.082 72.9136 65.2056 74.4998 64.3743C75.5116 63.8433 76.5199 63.3313 77.5212 62.8384C79.4406 61.8944 81.3356 61.0232 83.1873 60.2301C84.0847 59.8465 84.9731 59.4803 85.8477 59.135C92.446 56.5232 98.3084 55.0272 102.397 55.0272C104.787 55.0272 106.408 55.5565 106.963 56.5197C107.338 57.167 107.331 58.236 106.718 59.725C107.593 60.1277 108.37 60.7056 109.002 61.4154C110.191 58.9059 110.323 56.7852 109.369 55.1313Z" fill="#E25F40"/>
<path d="M103.163 81.3452C101.217 79.3512 98.942 77.3068 96.3996 75.2625C95.6724 74.6759 94.9225 74.0911 94.1522 73.5062C91.818 71.7326 89.2999 69.9711 86.6412 68.2548C85.6971 67.6421 84.7339 67.0365 83.7551 66.4395C82.7399 65.8147 81.7073 65.2021 80.6591 64.5964C79.6109 63.9925 78.5644 63.4059 77.5214 62.8384C76.5096 62.2883 75.5031 61.7555 74.5 61.2418C71.6695 59.7945 68.8841 58.4946 66.1959 57.3648C65.3021 56.99 64.4205 56.6325 63.5511 56.2958C62.3293 55.8203 61.1319 55.3847 59.9639 54.989C59.9257 55.9574 59.688 56.8772 59.2906 57.705C60.5436 58.1336 61.833 58.6109 63.1519 59.135C64.0266 59.4803 64.9151 59.8465 65.8124 60.2301C67.6641 61.0232 69.5592 61.8944 71.4786 62.8384C72.4799 63.3313 73.4882 63.8433 74.5 64.3743C76.0862 65.2056 77.6793 66.082 79.2707 67C80.8621 67.9198 82.4188 68.8604 83.932 69.8167C84.897 70.4241 85.8429 71.0401 86.7696 71.6597C88.5484 72.8467 90.2544 74.0529 91.8716 75.2625C92.6526 75.8473 93.4146 76.4322 94.1522 77.0187C96.8091 79.1271 99.1763 81.2359 101.176 83.2837C106.724 88.9709 107.803 92.551 106.963 94.0053C106.408 94.9667 104.787 95.4978 102.397 95.4978C98.3086 95.4978 92.4462 94.002 85.8481 91.39C84.9734 91.0448 84.085 90.6784 83.1876 90.2949C81.3359 89.5018 79.4408 88.6306 77.5216 87.6865C76.5201 87.1937 75.5119 86.6817 74.5002 86.1506C72.914 85.3194 71.3208 84.443 69.7294 83.5249C68.138 82.605 66.5813 81.6644 65.068 80.7083C64.1031 80.1009 63.1573 79.4848 62.2306 78.8653C60.4518 77.6782 58.7458 76.4721 57.1284 75.2625C56.3474 74.6776 55.5856 74.0928 54.848 73.5062C52.191 71.3976 49.8239 69.2891 47.8247 67.2413C42.2763 61.5542 41.1968 57.974 42.0368 56.5197C42.5539 55.6242 43.9926 55.1036 46.1151 55.0359C46.1099 54.93 46.1081 54.8224 46.1081 54.7148C46.1081 53.8471 46.2678 53.0176 46.5611 52.2505C43.0624 52.2574 40.73 53.2275 39.6315 55.1313C37.8075 58.2916 39.9525 63.1491 45.8374 69.1797C47.7828 71.1738 50.058 73.2181 52.6004 75.2625C53.3276 75.8491 54.0773 76.4339 54.8478 77.0187C57.182 78.7924 59.7001 80.5538 62.3588 82.2702C63.3029 82.8828 64.2661 83.4885 65.2449 84.0855C66.2601 84.7104 67.2927 85.3228 68.3409 85.9285C69.3891 86.5324 70.4356 87.119 71.4786 87.6865C72.4904 88.2367 73.4969 88.7694 74.5 89.2831C77.3305 90.7305 80.1159 92.0303 82.8041 93.1601C83.6979 93.535 84.5795 93.8925 85.4489 94.2291C92.1286 96.8219 98.0656 98.2745 102.397 98.2745C105.918 98.2745 108.265 97.3043 109.369 95.3936C111.192 92.2334 109.047 87.3741 103.163 81.3452Z" fill="#E25F40"/>
<path d="M74.4999 80.0228C77.1292 80.0228 79.2606 77.8914 79.2606 75.2621C79.2606 72.6329 77.1292 70.5015 74.4999 70.5015C71.8707 70.5015 69.7393 72.6329 69.7393 75.2621C69.7393 77.8914 71.8707 80.0228 74.4999 80.0228Z" fill="#E25F40"/>
</svg>
